<svg width="24" height="24" viewBox="0 0 24 24" fill="none" xmlns="http://www.w3.org/2000/svg">
<rect width="24" height="24" rx="5" fill="url(#paint0_linear_2006_2)"/>
<path d="M12 15.3424V12.3424M12 12.3424V9.34238M12 12.3424H9M12 12.3424H15M4 16.1425V10.7945C4 10.2602 4 9.99288 4.06497 9.74418C4.12255 9.52388 4.2173 9.31535 4.34521 9.12692C4.48955 8.91429 4.69064 8.73797 5.09277 8.38611L9.89436 4.18472C10.6398 3.53242 11.0126 3.20625 11.4324 3.0821C11.8026 2.97263 12.1972 2.97263 12.5674 3.0821C12.9875 3.20634 13.3608 3.53282 14.1074 4.18611L18.9074 8.38611C19.3096 8.73797 19.5102 8.91429 19.6546 9.12692C19.7825 9.31535 19.8775 9.52388 19.9351 9.74418C20 9.99278 20 10.2607 20 10.7945V16.146C20 17.2639 20 17.8234 19.7822 18.2509C19.5905 18.6272 19.2842 18.9329 18.9079 19.1246C18.4805 19.3424 17.9215 19.3424 16.8036 19.3424H7.19691C6.07899 19.3424 5.5192 19.3424 5.0918 19.1246C4.71547 18.9329 4.40973 18.6272 4.21799 18.2509C4 17.823 4 17.2626 4 16.1425Z" stroke="white" stroke-width="2" stroke-linecap="round" stroke-linejoin="round"/>
<defs>
<linearGradient id="paint0_linear_2006_2" x1="0" y1="0" x2="24" y2="24" gradientUnits="userSpaceOnUse">
<stop stop-color="#8B5CF6"/>
<stop offset="1" stop-color="#3B82F6"/>
</linearGradient>
</defs>
</svg>
