<svg xmlns="http://www.w3.org/2000/svg" viewBox="0 0 512 512">
  <defs>
    <linearGradient id="bg" x1="0%" y1="0%" x2="100%" y2="100%">
      <stop offset="0%" style="stop-color:#3b82f6"/>
      <stop offset="100%" style="stop-color:#1d4ed8"/>
    </linearGradient>
    <linearGradient id="accent" x1="0%" y1="0%" x2="100%" y2="100%">
      <stop offset="0%" style="stop-color:#10b981"/>
      <stop offset="100%" style="stop-color:#059669"/>
    </linearGradient>
  </defs>
  <!-- Background -->
  <rect width="512" height="512" rx="96" fill="url(#bg)"/>
  <!-- Calculator body -->
  <rect x="96" y="64" width="320" height="384" rx="24" fill="white" opacity="0.95"/>
  <!-- Screen -->
  <rect x="120" y="88" width="272" height="80" rx="12" fill="#1e293b"/>
  <!-- Display text -->
  <text x="368" y="148" font-family="Arial, sans-serif" font-size="48" font-weight="bold" fill="#10b981" text-anchor="end">ROI</text>
  <!-- Buttons grid -->
  <g fill="#e2e8f0">
    <rect x="120" y="192" width="56" height="48" rx="8"/>
    <rect x="192" y="192" width="56" height="48" rx="8"/>
    <rect x="264" y="192" width="56" height="48" rx="8"/>
    <rect x="336" y="192" width="56" height="48" rx="8" fill="url(#accent)"/>
    <rect x="120" y="256" width="56" height="48" rx="8"/>
    <rect x="192" y="256" width="56" height="48" rx="8"/>
    <rect x="264" y="256" width="56" height="48" rx="8"/>
    <rect x="336" y="256" width="56" height="48" rx="8" fill="#f59e0b"/>
    <rect x="120" y="320" width="56" height="48" rx="8"/>
    <rect x="192" y="320" width="56" height="48" rx="8"/>
    <rect x="264" y="320" width="56" height="48" rx="8"/>
    <rect x="336" y="320" width="56" height="48" rx="8" fill="#f59e0b"/>
    <rect x="120" y="384" width="128" height="48" rx="8"/>
    <rect x="264" y="384" width="56" height="48" rx="8"/>
    <rect x="336" y="384" width="56" height="48" rx="8" fill="url(#accent)"/>
  </g>
  <!-- Button labels -->
  <g fill="#475569" font-family="Arial, sans-serif" font-size="20" font-weight="bold" text-anchor="middle">
    <text x="148" y="224">7</text>
    <text x="220" y="224">8</text>
    <text x="292" y="224">9</text>
    <text x="148" y="288">4</text>
    <text x="220" y="288">5</text>
    <text x="292" y="288">6</text>
    <text x="148" y="352">1</text>
    <text x="220" y="352">2</text>
    <text x="292" y="352">3</text>
    <text x="184" y="416">0</text>
    <text x="292" y="416">.</text>
  </g>
  <!-- Operator labels -->
  <g fill="white" font-family="Arial, sans-serif" font-size="24" font-weight="bold" text-anchor="middle">
    <text x="364" y="224">%</text>
    <text x="364" y="288">−</text>
    <text x="364" y="352">+</text>
    <text x="364" y="416">=</text>
  </g>
  <!-- Building icon overlay -->
  <g transform="translate(380, 40)">
    <path d="M0 80 L40 50 L80 80 L80 120 L0 120 Z" fill="white" opacity="0.9"/>
    <rect x="15" y="90" width="20" height="30" fill="#3b82f6"/>
    <rect x="45" y="90" width="20" height="20" fill="#3b82f6"/>
  </g>
</svg>
